<svg xmlns="http://www.w3.org/2000/svg" viewBox="0 0 200 350"><defs><linearGradient id="mq-land" x1="0" y1="0" x2="1" y2="1"><stop offset="0%" stop-color="#C8E8C0"/><stop offset="100%" stop-color="#A8CC9C"/></linearGradient></defs><path d="M168.9,126.7L169.4,125.9L170.4,125.7L170.8,125.3L170.8,124.8L171.1,124.6L171.6,124.7L172.3,124.3L172.7,124.2L173,123.9L173.6,124L173.2,124.8L173.5,125.4L174.4,125.6L174.1,126L173.6,125.8L173,125.8L172.6,125.4L172,125.5L171.3,125.3L170.9,126.1L169.4,126.4L168.9,126.7Z" fill="url(#mq-land)" stroke="rgba(0,80,40,.12)" stroke-width="0.5"/><path d="M57,118.1L50.3,115.5L48,112.2L43.4,109.5L39.8,105.4L36.6,98.7L32.4,93L28.4,85.1L29,75.3L30.8,66.1L24.5,59.2L18.7,51.6L11.6,44.8L8.1,37.4L9.2,29.3L12.5,23.8L15.1,19.8L19,15.5L25,13L30.9,10L40.8,8.7L49.4,9.7L57.9,11.7L64.6,14.8L72.9,19.9L77.7,23.5L84.1,27.7L90.5,27.6L95.5,29.8L98.5,33.1L102.9,39.5L107.6,38.6L106.6,43.3L111.4,49L114.9,51.9L116,53.8L119.9,57.1L123.3,61.8L124.7,66.1L126.4,70L129.2,65.4L132.9,61.3L137.8,59.6L141.3,59.4L147.4,57.9L151.3,57L155.8,54L158.4,51.1L162.9,53.3L164.1,56.5L164.3,60.9L160.1,57.3L155.8,57.4L155.8,61.7L155.4,65L153.7,67.9L155.4,70.1L152.4,71.3L147.4,69.2L143.5,65.9L137.7,64.7L133.4,67.4L135.9,71.3L132.3,72.8L134.9,77.6L138.9,76.8L139.3,78.8L139.4,83.3L144.2,80.2L145.5,82.1L147.9,86.4L151.3,87.5L148.4,89.7L145.7,90.1L140.8,91.2L139.2,95.7L135.5,97.3L135,101.7L138.8,105.8L143.3,106.5L146.1,102.1L149,102.3L151.9,102.9L154.7,103.7L156.5,101.4L159.7,104.4L157.6,106.6L156,107.7L151.5,108.4L152.4,110.3L155.6,111.9L154.5,113L155.8,115.7L154.6,117.9L153.1,121.4L157.9,120.8L160.2,121.7L163.2,121.7L163.4,123.3L163.4,126.9L164.6,130.2L167.6,133.9L173.5,132.8L174.3,135.7L173.6,137.8L177.5,139.9L173,142.1L176.6,142.6L177.5,144.7L178.1,147.9L183.8,143.9L181.9,148.4L180.3,153.8L184,157L181.6,158.5L182.4,160.1L184.9,162.5L180.8,164.6L180.4,169.1L186,169L186.2,176.5L189.1,177L190.9,184L187.3,184.3L188.1,188.7L191.4,191.9L186.9,193.4L185.5,199L182.3,203.2L180.7,206.7L176.2,205.7L175.2,209.1L177.3,211L177.5,212.4L172.7,215.7L171.3,219.1L166.9,219.5L162.7,217.8L158.1,213.2L156.3,208.4L159.8,203.4L159.6,196L162.6,196.5L164.1,193.5L167.5,192.8L167.9,189.7L165.4,187.5L161,188.2L157.6,191.2L154.5,195.5L149.8,193.6L147.9,187.7L143.4,188.2L137.4,190.5L130.3,188.8L124.8,186.2L119.4,187.7L116.7,182L115.3,185.2L112.1,183.3L112.6,188.6L107.5,184.6L105.7,186.7L100.9,182.8L88.9,187.2L86.5,192.9L79.6,191.9L75.6,187.9L73.8,182.9L71.5,177.9L70.3,174.8L69,170.6L65.7,168.6L67.5,162.9L69.9,161.5L73.4,157.4L78.1,156.5L81.6,151.8L84.6,149.2L86,149L86,151.1L91.6,149.1L89.1,153.6L93.9,155.9L97.6,157.1L100.7,158.1L104.4,155.7L107.2,156L110.5,152.5L113,152.9L109.6,147.1L104.9,147L103.4,144.1L103,139.8L98.3,137.4L99.6,133.7L99.9,129.8L98.8,127.9L99.1,125L95.1,127L90.8,127.6L92,133.5L87.4,131.5L82.1,132.3L81.6,129.4L79.1,130L72.7,129.8L68,129.7L64.6,124.6L59.7,119.6Z" fill="url(#mq-land)" stroke="rgba(0,80,40,.12)" stroke-width="0.5"/><path d="M157.1,90.9L156.6,90.9L156.1,90.6L155.9,90.3L155.9,89.6L155.8,89.4L154.5,89.1L154,88.8L153.5,88.4L152.9,88L153.4,87.6L153.8,88L154.4,88.3L154.7,88.2L154.9,87.7L155.9,88.3L156.2,88L156.6,88.1L157.1,87.7L157.9,87.5L158,88.1L158.7,88.3L159.5,88.8L160.1,88.7L161,89.2L161.4,89.6L161.2,90.2L160.4,89.8L159.9,89.5L159.1,89.9L158.6,89.9L158.2,90.2L158,90.2L157.8,89.7L157.3,90L157.3,90.6L157.1,90.9Z" fill="url(#mq-land)" stroke="rgba(0,80,40,.12)" stroke-width="0.5"/></svg>