<svg xmlns="http://www.w3.org/2000/svg" viewBox="0 0 300 300"><defs><linearGradient id="gp-land" x1="0" y1="0" x2="1" y2="1"><stop offset="0%" stop-color="#C8E8C0"/><stop offset="100%" stop-color="#A8CC9C"/></linearGradient></defs><path d="M69.9,245.2L69.1,244.6L68.8,244.7L67.7,244L66.5,243.4L65.4,242.8L64.4,242.5L63.9,242.5L63.8,242.1L64.1,241.8L64.5,241.6L64.7,241.3L64.5,240.9L64.5,240.5L65.1,240.1L65.2,239.1L65.3,238.4L65.3,237.7L65.5,237.5L66,237.9L66.4,237.8L66.9,237.3L67.7,236.9L68.6,235.6L68.9,234.9L68.9,234.4L69.4,234.3L69.4,235.1L69.6,235.3L70.5,235.3L71.5,235.7L72.7,235.8L73.6,236.2L73.6,236.5L72.9,237.5L72.9,238.1L73.2,238.5L74.5,238.4L75,238.7L75.7,238.6L76.3,239.1L76.7,239.8L76.5,240.2L75.9,240.1L75.9,240.6L75.3,241.1L74.7,240.6L74.8,240.1L74.6,239.7L73.9,240.3L73.9,241.1L73.5,241.9L72.7,242.4L72.4,242.7L72.3,243.4L71.7,244.3L71.3,244.7L70.7,244.6L69.9,245.1L69.9,245.2Z" fill="url(#gp-land)" stroke="rgba(0,80,40,.12)" stroke-width="0.5"/><path d="M250.6,130.1L250,130L249.2,129.7L248,129.5L247.4,129.3L246.6,128.3L247.4,127.9L248.3,128.1L248.9,127.9L250.2,128.1L251.8,128.1L252.5,127.9L253.1,127.5L254.1,127.7L254.1,128.2L254.4,128.3L254.8,128.1L255,128.3L255.1,128.8L254.5,129.6L254,129.5L253.3,129.6L252.1,129.8L251.7,129.7L250.9,129.9L250.6,130.1Z" fill="url(#gp-land)" stroke="rgba(0,80,40,.12)" stroke-width="0.5"/><path d="M289.3,65.8L290,66.3L289.7,66.7L290.3,67L290.2,67.6L290.7,67.7L290.4,68.7L290.5,69.1L290.8,69.2L291.1,69.7L291.1,70L291.5,70.6L291.9,70.8L292,71.4L291.6,71.5L291.3,72L290.9,72.3L290.3,72.3L289.7,72.7L289.5,73.1L289.2,73L288.5,73.3L288.3,73.1L288,73.1L288.1,73.8L287.6,73.9L287.4,73.6L286.5,73.6L286,73.7L285.7,74L284.9,74.4L284,74.7L283.1,75.3L281.6,76.2L281,76.7L280.3,77.1L279.2,78.1L278.7,78.2L277.8,79.2L277.4,79.4L276.6,80.1L275.7,80.7L275.3,80.8L274.7,81.1L274.4,81.1L271.8,81.7L271.3,81.6L270.7,81.9L269.4,82.3L268.5,82.2L267.8,82.3L267.6,82.6L267.2,82.7L266.8,82.3L266.3,82.6L265.5,83.4L264.8,83.4L264.5,83.5L264.2,84.1L263.2,84.6L262,84.8L261.1,84.8L260.6,84.9L259.8,85.6L259.2,86.2L259,86.7L258.5,86.7L258.4,86.4L258.2,85.6L258,85.5L258.3,85L258.3,84.7L258.8,83.9L258.8,83.3L258.4,82.8L258.2,82.2L258.6,81.7L258.9,81.5L259.8,81.5L260.2,80.7L260.9,79.7L260.9,79.2L261.4,79L261.8,79.3L262.4,79.3L265.1,79L265.5,78.6L265.7,77.7L266.2,76.6L266.9,76.3L267.4,76.6L268.3,76.8L268.7,76.6L269.6,76.3L270,76.3L270.4,75.8L270.9,75.8L271.7,75.4L271.7,75L272.5,74.7L272.9,74L273.4,74.1L273.9,73.7L274.7,73.7L275,73.4L275.1,73L275.5,72.6L275.5,72L276,71.9L276,72.3L276.5,72.6L277.3,71.6L278,71.2L278.1,71L278.6,70.9L279,71.2L279.5,70.4L279.9,70.4L280.3,70.1L280.2,69.9L280.8,69.8L281.3,70.2L281.6,70L281.7,69.1L282,68.9L282.2,69.2L282.7,69.1L283.1,68.6L283.5,68.4L284,68.3L284.3,67.7L284.8,67.6L285.4,68.1L285.8,68L286,67.6L286.4,67.3L286.9,66.2L287.4,66L287.7,66.2L289,65.8L289.3,65.8Z" fill="url(#gp-land)" stroke="rgba(0,80,40,.12)" stroke-width="0.5"/><path d="M86.7,247.9L86.6,247.7L85.8,247.6L85.3,247.4L84.7,246.9L84.3,246.8L83.8,247L83.1,247L82.7,246.8L82.8,246.5L83.2,246.1L83.4,245.5L83.9,245.3L84.2,245L84.3,244.6L84.6,244.1L85.2,244.7L86.4,245.6L86.8,246.4L87.1,246.5L87.1,247L87,247.5L87,247.9L86.7,247.9Z" fill="url(#gp-land)" stroke="rgba(0,80,40,.12)" stroke-width="0.5"/><path d="M84.1,240.7L83.8,240.6L82.6,240.5L82.3,240.2L81.6,240L81.2,239.5L80.9,239L80.4,239L79.8,239.3L79.4,239.1L79.9,238.3L80.3,238.2L81.4,238.2L81.6,238.1L81.8,237.5L82.1,236.9L81.8,236.7L81.8,236.4L82.2,236.4L82.5,236.9L83.4,236.7L84.8,236.7L85.1,236.6L85.2,236.3L85.7,236.6L86.1,236.6L86.7,236.8L87.2,236.6L87.1,236.2L87.7,235.7L87.7,235.3L88,234.9L87.9,234.5L87.5,234.2L87.6,233.8L87.3,233.4L87,233.2L87.1,232.5L87.8,232.1L88,231.7L88,231.3L88.2,230.8L88.4,230.7L88.7,231.5L89,231.7L88.8,232.1L89.1,232.5L89.3,233L89,233.4L89.4,233.5L90.3,232.9L90.5,231.5L90.8,230.7L90.9,229.8L91.3,230.2L91.7,230.2L91.8,230.7L92.2,231L92.4,231.4L92.7,231.2L92.9,231.6L92.4,232.2L92.7,232.4L92.3,233L91.8,233.4L91.8,233.8L92.3,234.1L92.8,234L93.3,233.8L93.6,233.9L93.5,234.3L92.7,234.7L91.9,234.9L92.1,235.1L91.9,235.6L90.8,235.6L90.4,235.5L90,235.8L89.2,237.5L89.2,238.3L90,238.7L89.8,239L89.7,239.5L89.3,239.8L88.9,239.6L89,238.9L88.7,238.8L88.5,239.1L87.9,239.1L87.7,238.9L87.3,239.1L86.4,239.1L86,238.4L85.6,238.5L85.4,239.4L85.2,239.4L85,240.1L84.1,240.7Z" fill="url(#gp-land)" stroke="rgba(0,80,40,.12)" stroke-width="0.5"/><path d="M83.9,234L83.5,233.9L83.2,233.3L82.8,232.9L82,232.5L81.5,232.5L81.1,232L82,231.7L82.3,232.1L82.8,232.1L83,231.9L83.8,232.2L84.2,231.7L84.8,232L84.9,232.6L84.4,233.1L84.4,233.5L83.9,234Z" fill="url(#gp-land)" stroke="rgba(0,80,40,.12)" stroke-width="0.5"/><path d="M255.3,127L254.1,127L253.8,127.1L252.6,126.8L252.7,126.4L253.1,126.4L253.7,126L255,125.9L255.4,125.6L255.5,125.3L256,125.4L256.2,125.2L256.5,125.4L256.3,125.9L256,126.1L255.5,127L255.3,127Z" fill="url(#gp-land)" stroke="rgba(0,80,40,.12)" stroke-width="0.5"/><path d="M179.1,206.6L180.1,205.8L180.4,205.2L180.5,204.2L180.7,202.8L180.7,202.3L180.8,201.4L180.8,200.3L180.6,200.2L180.8,199.5L180.7,199.2L180.8,198.5L180.8,197.8L180.5,197.3L180.8,197.2L182.2,197.2L182.8,197L183.6,196.9L184.2,196.7L184.9,196.3L185,196L184.9,195.7L185.1,195.5L185.3,194.8L185,193.8L185.3,193.4L185.9,193.4L186.7,193.1L187.1,192.6L187,192.3L187.6,191.6L187.6,191.2L187.8,191L188.2,190L188.5,189.6L189.1,189L189.5,188.8L190.3,187.8L190.8,187.4L191.1,187.7L191.6,187.5L191.9,187.6L192.1,187.4L193.1,187.4L193.6,187.8L194,187.3L195,187.1L195.4,186.6L195.8,186.3L195.7,187.1L196.4,187.1L196.5,187.5L197,187.3L197.4,187.5L197.5,187.8L198.4,187.7L198.9,188L199.1,188.2L199.6,188.3L201,189.1L201,189.3L201.5,189.4L201.9,190.1L202.2,190.1L202.3,190.5L202.7,190.4L202.7,190.8L203.4,190.8L203.8,191.2L203.8,191.6L204.5,191.4L204.7,191.7L205,191.7L205.5,191.2L205.6,191.9L206.8,191.8L206.9,191.9L207.7,191.9L207.4,192.3L207.1,192.9L207.2,193.3L207.8,192.8L208.3,192.8L208.6,192.9L208.4,193.9L208.9,193.7L209.7,193.8L210,194.1L210.8,193.9L211.2,194.4L210.9,194.6L210.8,195L210.9,195.2L211.7,195.5L211.7,195.8L211.3,196.2L211.1,196.7L211.4,197.1L211.8,197.1L211.7,197.9L211.4,198.2L211.9,199.1L212.3,199.4L212.7,199.5L212.6,199.9L212.8,200.2L213.4,200L214.1,200L214.2,200.6L213.8,201L213.8,201.4L214.4,201.8L214.9,201.8L215.7,202.2L216.1,202.9L216.2,203.3L216.1,203.8L216.4,204.1L217.2,204.1L217.6,204.2L218.1,204.6L218.5,204.7L219.5,205.4L220.1,206L220.4,206.1L220.8,206.7L222.2,208.2L223,210.2L223.3,211.7L223.5,212.3L223.8,212.5L223.8,213.2L224.1,213.3L224.1,213.7L223.8,214.4L223.4,214.6L223.4,215.1L223.8,215.6L223.8,216.6L223.6,216.8L223.3,218.1L223.4,218.4L222.8,219.7L222.4,220.3L221.9,221.2L221.9,221.5L221.5,222.4L221.3,222.6L221.4,222.9L221,223.4L220.8,223.7L219.3,224.3L218.8,224.3L218.4,224.7L217.9,224.9L217.4,225.5L217,225.6L216.1,225.7L215,227.1L214.8,228.3L214.2,228.4L213.3,228.9L212.9,229.5L212.4,229.8L211.7,230.2L211.1,230.4L210.7,231L210.3,231.4L209.8,231.4L209.5,231.7L209,231.8L208.6,232.2L208.1,232.4L207.4,233L206.7,233L205.8,233.6L205.3,233.6L204.6,233.9L204.4,233.8L203.4,233.9L203.1,234.1L202.7,234.1L201.7,234.3L201.7,234.2L200.1,234.3L199.6,235L199.1,235.2L198.7,235.2L198.2,235.5L197.7,235.4L197.3,235.6L197,235.5L196.4,235.7L196.1,235.5L195.7,235.6L195.3,235.5L194.8,235.6L194.5,235.8L194,235.6L193.3,234.6L193.1,234.7L192.3,234.4L191.7,234.6L191.4,234.6L191.1,234.3L190.3,234.1L190.2,233.8L189.3,233.5L188.7,233.5L187.8,233.2L186.9,233L186.4,233.1L186.1,232.9L185.5,232.4L185,231.9L184.5,231.6L183.8,231.3L183.3,231.3L182.4,231.1L181.9,230.9L180.5,229.9L179.3,228.9L178.5,228L178.1,227.1L177.9,226.8L177.7,226L177.6,225.8L176.7,225.2L176.3,224.7L176.3,224.4L176,223.8L176.7,223L176.9,222.6L176.6,221L176,219.6L175.8,218.8L175.8,218.3L175.5,217.7L175.4,216.8L175,215.3L174.9,214.6L174.7,213.1L174.2,211.2L174.1,210.5L174.2,209.5L175.1,208.7L177,207.7L177.3,207.5L178.3,207.1L179.1,206.6Z" fill="url(#gp-land)" stroke="rgba(0,80,40,.12)" stroke-width="0.5"/><path d="M86.2,67.6L85.5,67.6L84.8,67.1L84.6,67.1L83.9,67.7L83.7,68.6L82.8,68.5L82.9,68.2L83.8,67.3L83.9,67L84.3,66.6L84.7,66.1L84.7,64.9L85.1,64.6L85.5,64.5L86.6,64.7L87,64.9L87.8,65L88.5,65.6L89.1,66.1L89,67L88.5,67.5L87.7,67.7L87.2,67.7L86.8,67.5L86.2,67.6Z" fill="url(#gp-land)" stroke="rgba(0,80,40,.12)" stroke-width="0.5"/><path d="M9.2,94.6L8,92.9L10.2,91.3L9.9,89.9L10.8,88L10.4,85.7L10.6,83.7L12,81.9L12.7,80.1L10.7,79.2L14.1,76.6L16,73.6L15.8,70.8L18.7,69L19.9,66.3L21.5,65.8L23.2,64.6L25.6,63.8L29.4,64L30.4,62.1L32.5,62.3L35.1,63.6L36.6,63.5L37.9,64.9L39.6,66.6L41,67.7L40.9,69.4L42.5,70.3L45.4,70.5L47.4,71.3L49.3,71.7L50.6,72.8L51.4,74.3L53.5,73.9L54.1,73.8L56.2,74.7L56.7,75.9L57.4,77.4L58.9,77.2L61.2,76.4L64,76L66.2,77L66.5,78.6L67.4,80.3L69.6,80.6L71.5,81.7L73.1,82.9L76.7,82.2L80,81.8L81.2,83L79.2,84.6L77.8,86.9L76.1,89.5L74.9,88.8L75.5,87.1L74.4,86.7L73.9,88.9L72.4,91L74.7,91.5L77.7,90.8L76.6,94.3L78.2,94.5L80.7,93L82,90L82.1,91.2L82.2,93L82.6,95.3L85.5,94.7L87.5,93.4L89,90.8L89.8,89L91.2,89.8L93.5,88.4L95.1,88.8L96.3,88.1L98.2,89.5L97.2,90.8L95.5,91.8L97.2,92.9L98.2,91L99.5,91.8L99.8,94L100.1,96.2L100.3,98.8L98.3,100.6L99.4,102.6L99,106L100.4,107L100.4,108.6L100.1,110.3L97.7,108L96.2,106.1L95,107.3L93.2,105.9L90.5,106.5L88.8,105.6L87.1,107.9L85.8,112.2L86.1,114.4L86.9,116L85.8,119.1L85.2,122.3L86.5,124.5L88.7,125.9L88.4,128.1L87,130L88.1,133.5L90.3,134.9L90.1,137.1L90.1,138.8L90.8,140.4L93.1,141.3L95,142L94.8,144.1L92.3,146.3L93.2,150.7L94.6,151.9L95.5,153.1L95.6,155.4L95.9,157.6L95.5,160.5L95.4,163.5L96.1,168L97.4,170.2L97,170.9L95.5,172.8L94.1,175.6L92.6,178.4L91.6,180.2L89.7,181.8L88.1,183.3L86.5,184.7L85.6,185.7L84.4,186.5L82.3,187.9L80.6,189.2L79.6,190.7L77.3,191.9L76.6,194.5L74.8,196.5L75.3,198.3L73.9,198.9L71.7,199.3L70.2,200.2L68.7,200.2L66.4,200.4L64.6,199.5L62.9,200.6L60.8,202.9L59.7,201.4L55.9,204.1L54,205.8L51.7,206.6L48.9,207L46,207.4L43.8,206.8L43.1,204.9L43.7,202.6L43,199.2L41.9,196.7L40.7,194.4L37.5,193.1L34.5,189.9L32.3,187.6L30.4,185.6L29.9,182.4L29.6,179.4L27.7,176L26.4,174.1L24.7,172.1L23.4,170.3L22.1,168.2L22.6,162.9L22.9,159.3L23.1,157.5L21.4,157.3L20.9,156L20.7,154.4L20.5,153L21,151.7L20.7,149.4L20.8,146.5L20.9,145.2L22,143.8L21.4,141.1L19.8,140L18.8,139.3L19.7,137.4L20,135.9L19.6,132L19.4,129.1L17.9,127.6L17.3,126.3L17.2,124.2L17.4,122.5L15.8,120.5L16.4,118.6L17.4,115.9L17.2,112.8L16.7,110.2L14.8,107.3L12.7,105.4L10.8,103.4L10.5,101.1L9.7,99.5L9.5,96.3Z" fill="url(#gp-land)" stroke="rgba(0,80,40,.12)" stroke-width="0.5"/><path d="M106.2,112.3L106.5,112.2L108.8,111.9L107.7,111.8L107.2,111.1L105.6,109.8L106.4,109L105.1,108.3L105.2,106.5L104,106.5L103.2,104.5L100.1,101.1L99.8,99.8L100.4,97.6L100.2,95.4L100.2,93.8L100,92L100.1,90.1L99.1,88.8L97.8,87.9L99.1,87.9L101.3,86.2L102,87.3L101.3,85.1L100.4,82.9L100.8,82.4L102.4,82.5L103.7,80.3L104.3,79.1L104.4,77.3L105.1,74.2L104.4,72.4L106.5,70.1L106.5,69.6L108.7,67.8L111.2,68.1L114.5,67.8L114.4,66.5L115.5,66.1L117.1,65.1L119.1,64.7L117,64L117.9,62.6L117,61.2L117.7,60L117.9,58L118.6,56.4L117.6,54.6L115.3,52.6L114.3,52.8L112.6,51.9L109.9,51L107.8,50.1L106.8,48.3L106.4,45.7L105.5,43.7L104.8,41.7L104.6,38.7L103.5,35L102.4,34.5L103.8,32.1L104.3,29.2L106.8,26.6L109.2,24.6L112.5,22.9L114.6,21L115.4,18.6L118.2,17.8L120.4,16.4L122.1,15.1L123.9,13.9L124.5,11.7L125.8,9.9L127.1,9.3L128.5,9.3L128.6,10.6L129.8,11.3L129.8,12.4L132.5,13.1L135.2,13.2L136.7,13L137.5,17L138.5,16.8L140.2,17.4L141.2,19.2L142.4,20.1L143.4,21.4L144.8,21.4L146,23.1L147.2,23.8L148.5,24.5L148.5,25.8L148.9,27.3L149.4,30L149.8,31.9L150.9,32.6L151.9,34.9L152.4,37.1L152.6,39.5L151.9,41.9L151.7,43.2L151,45.6L150.8,47.3L150.1,49.7L150,52.5L151.1,54.9L151.4,57L153.5,59.8L154.6,62.2L156.3,63.8L157.7,65.8L159,67.7L160.2,68.6L162.8,69.4L163.5,70.9L165.4,70.4L167.6,71.1L170,71L171.5,71.8L172.8,72.5L175.9,71.4L178.6,72.2L181.9,72.7L184.9,73.7L186.9,73.7L188,75.1L190.2,75.7L192.2,75.7L193.6,77.5L195.8,78.3L196.9,79.2L199,80.6L200,81.2L201.8,82.6L203.2,85.6L205.4,89.3L206.3,91.6L207.5,92.8L210.6,94.9L214.1,96L216,96.7L218,97.8L221.5,99.5L222.6,98.1L224.3,99.4L227.2,99.5L229.7,101.8L230.8,102.2L231.1,103.6L228.3,102.5L225.8,101.2L224.2,101L221.5,101L219.4,100.7L215,99.8L210.7,99.7L207,99.1L202.8,98.8L199.3,100.1L199.3,100.9L196.6,100.9L194,100.9L191.9,102.5L189.2,103.3L186.3,103.6L183.3,103.7L181.2,104.1L179,103.1L178.6,104.1L174.2,103.8L172.8,104.5L169.6,105.8L166.2,106.2L163.8,106.9L161.9,108.6L159.6,110.4L156.2,110.3L154.2,112.5L151.9,111.9L150.1,112.7L149,114L146.4,114.7L145.1,115.1L144,115.2L143.1,115.4L140.7,115.3L137.1,116.1L134.7,118.3L132.7,118.4L130.6,118.6L129,119.7L126.5,118.7L124.4,118L121.9,116.8L119.3,117L115.2,116.5L114.2,115.4L113.3,112.9L110.9,113.5L109.6,113.8L106.9,112.5Z" fill="url(#gp-land)" stroke="rgba(0,80,40,.12)" stroke-width="0.5"/></svg>