<svg xmlns="http://www.w3.org/2000/svg" viewBox="0 0 800 600">
  <!-- Martinique -->
  <g id="martinique" transform="translate(500,50)">
    <path d="M95,12 C105,8 118,15 125,28 C132,42 138,55 142,72 C148,95 155,120 152,145
      C150,162 145,178 138,195 C132,210 128,228 130,248
      C132,268 140,285 145,305 C148,318 146,332 138,345
      C130,358 118,368 108,382 C98,396 92,412 82,425
      C72,438 58,448 45,442 C35,438 28,425 25,410
      C22,395 24,378 28,362 C32,345 30,328 25,312
      C18,292 12,272 10,250 C8,228 12,205 18,185
      C25,162 35,142 48,125 C58,112 62,95 65,78
      C68,58 78,38 88,22 C90,18 92,14 95,12Z"
      fill="url(#land)" stroke="rgba(0,80,40,.15)" stroke-width="1"/>
  </g>
  <!-- Guadeloupe (Basse-Terre + Grande-Terre) -->
  <g id="guadeloupe" transform="translate(80,80)">
    <!-- Basse-Terre (papillon gauche) -->
    <path d="M85,15 C95,10 108,18 115,35 C122,52 125,72 120,95
      C115,118 105,138 98,158 C92,175 88,195 85,218
      C82,240 78,262 72,282 C65,302 55,318 42,328
      C30,338 18,332 12,318 C5,302 8,282 15,262
      C22,242 25,220 22,198 C18,175 20,152 28,132
      C35,112 45,95 55,78 C62,65 70,48 78,32
      C82,22 84,17 85,15Z"
      fill="url(#land)" stroke="rgba(0,80,40,.15)" stroke-width="1"/>
    <!-- Grande-Terre (papillon droit) -->
    <path d="M135,45 C148,38 165,42 178,55 C192,68 202,85 208,105
      C212,122 210,142 202,158 C195,172 182,182 172,195
      C162,208 155,222 152,238 C148,255 140,268 128,272
      C115,278 102,268 98,252 C92,235 95,215 102,198
      C108,182 112,165 108,148 C105,132 108,115 115,100
      C122,85 128,68 132,52 C133,48 134,46 135,45Z"
      fill="url(#land)" stroke="rgba(0,80,40,.15)" stroke-width="1"/>
    <!-- Riviere Salee (connection) -->
    <path d="M98,252 C102,248 108,245 115,248 C120,252 122,258 128,262"
      fill="none" stroke="rgba(0,80,40,.08)" stroke-width="3"/>
  </g>
  <defs>
    <linearGradient id="land" x1="0" y1="0" x2="1" y2="1">
      <stop offset="0%" stop-color="#C8E8C0"/>
      <stop offset="60%" stop-color="#B4D8A8"/>
      <stop offset="100%" stop-color="#A8CC9C"/>
    </linearGradient>
  </defs>
</svg>
