<svg xmlns="http://www.w3.org/2000/svg" viewBox="0 0 1200 630" width="1200" height="630" role="img" aria-label="Le Veilleur — Fort Lauderdale — MODERATE PRESENCE"><defs><linearGradient id="vsky" x1="0" y1="0" x2="0" y2="1"><stop offset="0" stop-color="#F4922E"/><stop offset=".3" stop-color="#F7B733"/><stop offset=".55" stop-color="#E9A62C"/><stop offset=".78" stop-color="#3E7C6A"/><stop offset="1" stop-color="#123B37"/></linearGradient><radialGradient id="vsun" cx="80%" cy="16%" r="42%"><stop offset="0" stop-color="#FFF3C9"/><stop offset=".45" stop-color="#FFD36A" stop-opacity=".5"/><stop offset="1" stop-color="#FFD36A" stop-opacity="0"/></radialGradient><radialGradient id="vsmk" cx="50%" cy="50%" r="50%"><stop offset="0" stop-color="#5FBFA0" stop-opacity=".5"/><stop offset="1" stop-color="#5FBFA0" stop-opacity="0"/></radialGradient><linearGradient id="vgold" x1="0" y1="0" x2="0" y2="1"><stop offset="0" stop-color="#FFE47A"/><stop offset=".5" stop-color="#FFC72C"/><stop offset="1" stop-color="#E8A800"/></linearGradient><linearGradient id="vlens" x1="0" y1="0" x2="1" y2="1"><stop offset="0" stop-color="#CFF4FF"/><stop offset=".4" stop-color="#16b9c9"/><stop offset="1" stop-color="#052b2b"/></linearGradient><pattern id="vhalf" width="10" height="10" patternUnits="userSpaceOnUse" patternTransform="rotate(8)"><circle cx="2" cy="2" r="1.3" fill="#0d0d0d" opacity=".16"/></pattern><style>@import url(https://fonts.googleapis.com/css2?family=Anton&amp;family=Bangers&amp;family=Bricolage+Grotesque:wght@600;700;800&amp;family=JetBrains+Mono:wght@700&amp;display=swap);</style></defs><rect width="1200" height="630" fill="url(#vsky)"/><rect width="1200" height="630" fill="url(#vsun)"/><rect width="1200" height="630" fill="rgba(255,178,46,.16)"/><ellipse cx="350" cy="250" rx="300" ry="240" fill="url(#vsmk)"/><ellipse cx="900" cy="180" rx="240" ry="190" fill="url(#vsmk)" opacity=".7"/><rect width="1200" height="630" fill="url(#vhalf)"/><path d="M0 630 L0 545 Q180 520 340 540 Q520 560 700 536 Q920 508 1200 540 L1200 630 Z" fill="#0c0c0e"/><g stroke="#0c0c0e" stroke-width="5" fill="none"><path d="M120 545 L120 452 M96 470 L144 470 M96 486 L144 486"/><path d="M120 470 Q320 508 520 480 M120 486 Q320 524 520 496"/><path d="M520 480 L520 420 M498 438 L542 438"/></g><rect x="0" y="0" width="1200" height="40" fill="#0d0d0f"/><text x="30" y="27" font-family="Anton" font-size="20" letter-spacing="3" fill="#FFC72C">LE VEILLEUR</text><text x="240" y="26" font-family="Bricolage Grotesque" font-weight="800" font-size="12" letter-spacing="5" fill="#EAF7F4">COMICS GROUP</text><text x="1170" y="26" text-anchor="end" font-family="JetBrains Mono" font-weight="700" font-size="12" letter-spacing="2" fill="#5FBFA0">N°07 · FORT LAUDERDALE</text><polygon class="vb" points="300.0,100.0 326.9,149.5 375.0,120.1 373.5,176.5 429.9,175.0 400.5,223.1 450.0,250.0 400.5,276.9 429.9,325.0 373.5,323.5 375.0,379.9 326.9,350.5 300.0,400.0 273.1,350.5 225.0,379.9 226.5,323.5 170.1,325.0 199.5,276.9 150.0,250.0 199.5,223.1 170.1,175.0 226.5,176.5 225.0,120.1 273.1,149.5" fill="#FFC72C" opacity=".34"/><g transform="skewX(-6)"><g class="vlogo"><text x="70" y="180" font-family="Anton" font-size="46" fill="#FDFCF7" stroke="#0d0d0f" stroke-width="2" letter-spacing="1">LE</text><text x="66" y="300" font-family="Anton" font-size="150" fill="#0b3a36" letter-spacing="-3">VEILLEUR</text><text x="62" y="296" font-family="Anton" font-size="150" fill="none" stroke="#0d0d0f" stroke-width="9" stroke-linejoin="round" letter-spacing="-3">VEILLEUR</text><text x="62" y="296" font-family="Anton" font-size="150" fill="url(#vgold)" letter-spacing="-3">VEILLEUR</text></g></g><g class="veq"><rect x="250" y="120" width="6" height="22" rx="1" fill="#FFC72C" style="animation-delay:0s"/><rect x="259" y="120" width="6" height="22" rx="1" fill="#FFC72C" style="animation-delay:0.12s"/><rect x="268" y="120" width="6" height="22" rx="1" fill="#FFC72C" style="animation-delay:0.24s"/><rect x="277" y="120" width="6" height="22" rx="1" fill="#FFC72C" style="animation-delay:0.36s"/></g><text x="70" y="368" font-family="Anton" font-size="52" fill="#fff">Fort Lauderdale</text><g transform="rotate(-1 70 400)"><rect x="70" y="386" width="309" height="34" fill="#0d0d0f"/><text x="82" y="410" font-family="Bricolage Grotesque" font-weight="800" font-size="17" fill="#EAF7F4">WE WATCH THE SEA FOR YOU.</text></g><g transform="rotate(1 70 470)"><rect x="70" y="452" width="250" height="60" fill="#0d0d0f"/><rect x="76" y="458" width="238" height="48" fill="none" stroke="#EAF7F4" stroke-width="2"/><text x="88" y="484" font-family="Anton" font-size="22" fill="#fff">MEASURED</text><text x="88" y="502" font-family="Bricolage Grotesque" font-weight="800" font-size="11" letter-spacing=".4" fill="#FFC72C">100% SATELLITE · 0% GUESSED</text></g><g transform="translate(1085,175) scale(.72)"><g class="vmasc"><circle cx="0" cy="10" r="150" fill="#5FBFA0" opacity=".16"/><path d="M0 60 L-84 250 L84 250 Z" fill="#FFD36A" opacity=".2"/><g stroke="#0d0d0f" stroke-width="7"><rect x="-168" y="-8" width="108" height="58" rx="7" fill="#123B57" transform="rotate(-8 -114 21)"/><rect x="60" y="-8" width="108" height="58" rx="7" fill="#123B57" transform="rotate(8 114 21)"/></g><path d="M0 -66 C54 -66 86 -36 86 14 C86 82 58 128 0 128 C-58 128 -86 82 -86 14 C-86 -36 -54 -66 0 -66 Z" fill="#16332e" stroke="#0d0d0f" stroke-width="8"/><circle cx="0" cy="34" r="58" fill="url(#vlens)" stroke="#0d0d0f" stroke-width="8"/><circle cx="0" cy="34" r="58" fill="none" stroke="#E8A800" stroke-width="8"/><circle cx="0" cy="44" r="22" fill="#03100f"/><circle cx="-9" cy="25" r="9" fill="#fff7e2"/><line x1="0" y1="-66" x2="0" y2="-108" stroke="#0d0d0f" stroke-width="9"/><circle class="vdot" cx="0" cy="-114" r="13" fill="#22C55E" stroke="#0d0d0f" stroke-width="7"/></g></g><g transform="rotate(-1.5 620 460)"><rect x="600" y="392" width="470" height="182" rx="12" fill="#FDFCF7" stroke="#0d0d0f" stroke-width="5"/><path d="M660 392 L708 392 L652 356 Z" fill="#FDFCF7" stroke="#0d0d0f" stroke-width="5"/><circle class="vdot" cx="628" cy="424" r="7" fill="#22C55E"/><text x="646" y="430" font-family="JetBrains Mono" font-weight="700" font-size="14" letter-spacing="2" fill="#127c3b">LIVE · TODAY</text><text x="626" y="474" font-family="Anton" font-size="42" fill="#0d0d0f">Fort Lauderdale</text><rect x="626" y="486" width="234" height="34" rx="17" fill="#B87A00" opacity=".16"/><text x="642" y="509" font-family="Bricolage Grotesque" font-weight="800" font-size="17" fill="#B87A00">MODERATE PRESENCE</text><text x="626" y="545" font-family="Bricolage Grotesque" font-weight="700" font-size="12.5" fill="#5a5a5a">Exemple · le verdict du jour est en direct sur l’app</text></g><g class="vstk"><polygon points="1052.0,286.0 1067.8,318.3 1098.5,299.7 1094.3,335.3 1130.2,336.3 1107.4,364.0 1137.1,384.2 1102.9,395.3 1117.0,428.3 1082.3,419.1 1076.2,454.5 1052.0,428.0 1027.8,454.5 1021.7,419.1 987.0,428.3 1001.1,395.3 966.9,384.2 996.6,364.0 973.8,336.3 1009.7,335.3 1005.5,299.7 1036.2,318.3" fill="#FFC72C" stroke="#0d0d0f" stroke-width="6" stroke-linejoin="round"/><text x="1052" y="384" text-anchor="middle" font-family="Bangers" font-size="34" fill="#0d0d0f" textLength="120" lengthAdjust="spacingAndGlyphs">SO-SO</text></g></svg>